<svg width="66" height="64" viewBox="0 0 66 64" fill="none" xmlns="http://www.w3.org/2000/svg">
<g filter="url(#filter0_d_2008_5820)">
<path d="M41.0962 33.9026L51.5625 43.4252C53.7795 45.448 53.4644 48.5 50.3921 48.5H44.6074C43.6959 48.5 42.818 48.157 42.1766 47.53L34.1861 39.8291C33.7922 39.4505 33.1508 39.4505 32.7569 39.8291L24.7102 47.53C24.0687 48.1451 23.2021 48.4882 22.2905 48.4882H16.4159C13.366 48.4882 11.8467 44.963 14.03 42.9284L23.7986 33.8079C24.4288 33.2165 24.4176 32.2465 23.7761 31.6786L14.8178 23.7056C12.5445 21.7065 14.0413 18.0985 17.1362 18.0985H22.4481C23.3372 18.0985 24.1925 18.4297 24.8227 19.0212L32.7456 26.3672L41.0962 33.9026Z" fill="#2FFD76"/>
<path fill-rule="evenodd" clip-rule="evenodd" d="M37.0136 22.457C37.0052 22.6211 37.0005 22.7903 37 22.9648C36.9999 22.9843 37.0157 23 37.0351 23V23C37.0527 22.9999 37.0676 23.0131 37.07 23.0306C37.5331 26.4069 40.2366 29 43.5 29C46.7678 29 49.4742 26.4 49.9318 23.017C49.9341 23 49.9486 22.9871 49.9658 22.9871V22.9871C49.9847 22.9871 50 22.9718 49.9999 22.9529C49.9994 22.7756 49.9952 22.6038 49.9875 22.4374C49.9954 22.2999 49.9996 22.1614 50 22.0219C50 22.0098 49.9902 22 49.9781 22V22C49.9668 22 49.9573 21.9911 49.9562 21.9798C49.7323 19.523 48.6733 18.2591 47.3682 16.7015C46.2734 15.3949 45.0055 13.8817 43.9122 11.2846C43.7541 10.8966 43.2571 10.9096 43.099 11.2975C42.0248 13.9658 40.7271 15.5365 39.6054 16.8942C38.3342 18.4328 37.2889 19.6979 37.0509 21.9769C37.0495 21.9899 37.0385 22 37.0255 22V22C37.0114 22 37 22.0114 37 22.0255C37.0005 22.1704 37.0051 22.3143 37.0136 22.457Z" fill="#2FFD76"/>
</g>
<defs>
<filter id="filter0_d_2008_5820" x="0" y="0" width="66" height="63.5" filterUnits="userSpaceOnUse" color-interpolation-filters="sRGB">
<feFlood flood-opacity="0" result="BackgroundImageFix"/>
<feColorMatrix in="SourceAlpha" type="matrix" values="0 0 0 0 0 0 0 0 0 0 0 0 0 0 0 0 0 0 127 0" result="hardAlpha"/>
<feOffset dy="2"/>
<feGaussianBlur stdDeviation="6.5"/>
<feComposite in2="hardAlpha" operator="out"/>
<feColorMatrix type="matrix" values="0 0 0 0 0.184314 0 0 0 0 0.992157 0 0 0 0 0.462745 0 0 0 0.63 0"/>
<feBlend mode="normal" in2="BackgroundImageFix" result="effect1_dropShadow_2008_5820"/>
<feBlend mode="normal" in="SourceGraphic" in2="effect1_dropShadow_2008_5820" result="shape"/>
</filter>
</defs>
</svg>
